<?xml version="1.0" encoding="UTF-8"?>
<svg version="1.1" xmlns="http://www.w3.org/2000/svg" width="64" height="64">
<path d="M0 0 C2.825205 3.48995912 2.64229027 5.85698306 2.4375 10.234375 C2.08429976 12.93635686 1.14458367 15.11002694 0.125 17.625 C0.41147533 19.96454855 0.75549535 22.29712073 1.125 24.625 C1.92071504 34.86802274 0.46562515 42.81529778 -6.0625 50.9375 C-11.30948384 56.52372848 -17.95069078 60.39181544 -25.6796875 60.7578125 C-34.3616573 60.73572097 -34.3616573 60.73572097 -38.0625 59.9375 C-41.12329168 59.59741204 -42.41440374 60.06104962 -45.25 61.125 C-49.9778475 62.85801167 -52.98465843 62.88974351 -57.875 61.625 C-60.19182531 59.81498023 -60.75069442 58.61740685 -61.11328125 55.72265625 C-61.24563358 51.98196143 -61.22075857 48.71152443 -58.875 45.625 C-57.39 45.13 -57.39 45.13 -55.875 44.625 C-56.37 43.5525 -56.865 42.48 -57.375 41.375 C-60.38042541 33.23590534 -59.79204299 24.77624225 -56.1953125 16.94140625 C-51.77286492 9.18249674 -45.5345832 3.76314839 -36.96484375 1.01171875 C-29.14139925 -0.43598406 -22.04797531 0.31439601 -14.875 3.625 C-14.6275 2.985625 -14.38 2.34625 -14.125 1.6875 C-12.875 -0.375 -12.875 -0.375 -11.125 -1.125 C-6.84789332 -1.60023408 -3.98075405 -1.90383889 0 0 Z M-12.875 4.625 C-12.153125 5.346875 -11.43125 6.06875 -10.6875 6.8125 C-8.08333333 9.41666667 -5.47916667 12.02083333 -2.875 14.625 C-1.7172494 11.15174819 -1.80633348 8.26432552 -1.875 4.625 C-6.21129181 2.3293161 -8.40964227 2.75578049 -12.875 4.625 Z M-49.875 14.625 C-54.33664576 21.53668244 -56.00068596 28.70740319 -54.44921875 36.86328125 C-52.41345444 44.09461582 -48.10092255 49.47438496 -41.875 53.625 C-37.85875813 53.35434022 -34.85408029 50.77371803 -31.625 48.5625 C-30.54734375 47.82902344 -29.4696875 47.09554687 -28.359375 46.33984375 C-27.53953125 45.77394531 -26.7196875 45.20804688 -25.875 44.625 C-26.35749453 49.18189278 -26.35749453 49.18189278 -28.72265625 51.20703125 C-29.45355469 51.61308594 -30.18445313 52.01914062 -30.9375 52.4375 C-31.67097656 52.85644531 -32.40445313 53.27539062 -33.16015625 53.70703125 C-33.72605469 54.00996094 -34.29195312 54.31289063 -34.875 54.625 C-32.92314443 57.00526375 -32.92314443 57.00526375 -29.3125 56.9375 C-21.37505229 56.67913823 -15.37373618 54.02097306 -9.6015625 48.59375 C-3.92341804 42.11912374 -2.46966251 35.00197483 -2.875 26.625 C-3.535 25.965 -4.195 25.305 -4.875 24.625 C-5.40609375 25.39585938 -5.9371875 26.16671875 -6.484375 26.9609375 C-7.54398438 28.46527344 -7.54398438 28.46527344 -8.625 30 C-9.32109375 30.99773438 -10.0171875 31.99546875 -10.734375 33.0234375 C-12.75553382 35.47980935 -13.91921139 36.59419977 -16.875 37.625 C-17.535 37.625 -18.195 37.625 -18.875 37.625 C-18.51672119 37.16125977 -18.15844238 36.69751953 -17.78930664 36.21972656 C-16.16529567 34.10990936 -14.55134634 31.99260087 -12.9375 29.875 C-12.09155273 28.78058594 -12.09155273 28.78058594 -11.22851562 27.6640625 C-10.69033203 26.95507812 -10.15214844 26.24609375 -9.59765625 25.515625 C-9.10015869 24.86625977 -8.60266113 24.21689453 -8.09008789 23.54785156 C-6.81348336 21.52765118 -6.19875983 19.98820149 -5.875 17.625 C-9.66022804 11.05538388 -15.73721223 7.11435871 -22.8828125 5.04296875 C-33.52260473 2.81069861 -42.82971082 6.59145758 -49.875 14.625 Z M-54.875 46.625 C-56.50151522 49.87803044 -55.98953156 53.01725602 -55.875 56.625 C-54.71197846 58.01028649 -54.71197846 58.01028649 -51.5 57.8125 C-47.77824609 57.92953853 -47.77824609 57.92953853 -44.875 55.625 C-45.42929687 55.14289062 -45.98359375 54.66078125 -46.5546875 54.1640625 C-47.27914062 53.53242187 -48.00359375 52.90078125 -48.75 52.25 C-49.46929687 51.62351562 -50.18859375 50.99703125 -50.9296875 50.3515625 C-52.2826598 49.15073166 -53.5958345 47.9041655 -54.875 46.625 Z " fill="#E9645D" transform="translate(60.875,1.375)"/>
<path d="M0 0 C-0.25313986 6.20192659 -0.25313986 6.20192659 -2.3671875 8.4609375 C-2.90601563 8.94820312 -3.44484375 9.43546875 -4 9.9375 C-8.00183053 14.07272488 -7.71496044 19.05710604 -7.7734375 24.48999023 C-7.83421772 29.83421772 -7.83421772 29.83421772 -10 32 C-10.99 32 -11.98 32 -13 32 C-13.99 29.03 -14.98 26.06 -16 23 C-16.845625 23.78375 -17.69125 24.5675 -18.5625 25.375 C-21.87538619 28.09685485 -24.68482612 29.39436156 -29 30 C-31.59307343 29.28082729 -33.59857464 28.2742257 -36 27 C-35.375 25.125 -35.375 25.125 -34 23 C-32 22.33333333 -30 21.66666667 -28 21 C-25.16540517 18.50041345 -25.16540517 18.50041345 -23 16 C-25.97 15.01 -28.94 14.02 -32 13 C-32 12.01 -32 11.02 -32 10 C-28.40124837 7.74966399 -25.37013866 7.80437883 -21.1875 7.75 C-14.43421237 7.38457757 -11.4238302 5.92781085 -7 1 C-4.53721199 -0.231394 -2.7204945 -0.07159196 0 0 Z " fill="#E9645C" transform="translate(49,15)"/>
</svg>
